<svg width="47" height="47" viewBox="0 0 47 47" fill="none" xmlns="http://www.w3.org/2000/svg">
<path d="M23.5 0C36.4787 0 47 10.5213 47 23.5C47 36.4787 36.4787 47 23.5 47C10.5213 47 0 36.4787 0 23.5C5.88153e-07 10.5213 10.5213 5.88115e-07 23.5 0ZM25.2715 9.11621C20.0488 9.11621 18.8615 13.028 18.8613 15.5264V19.0205H15.8398V24.4189H18.8613V39.7812H25.2148V24.4189H29.4082L29.9629 19.0254H25.2148V15.8477C25.215 14.6563 26.0025 14.376 26.5625 14.376H29.9775V9.13574L25.2715 9.11621Z" fill="#FEFEFE"/>
</svg>
