<svg width="47" height="47" viewBox="0 0 47 47" fill="none" xmlns="http://www.w3.org/2000/svg">
<path d="M23.5 0C36.4782 2.01086e-07 47 10.5218 47 23.5C47 36.4782 36.4782 47 23.5 47C10.5218 47 2.01073e-07 36.4782 0 23.5C0 10.5218 10.5218 0 23.5 0ZM16.4961 12.5039C14.2604 12.5041 12.4416 14.3229 12.4414 16.5586V30.5674C12.4416 32.803 14.2604 34.6229 16.4961 34.623H30.5049C32.7403 34.6227 34.5604 32.8034 34.5605 30.5674V16.5586C34.5604 14.3231 32.7409 12.5043 30.5049 12.5039H16.4961ZM23.5 16.2822C27.515 16.2824 30.7822 19.5489 30.7822 23.5635C30.7821 27.5779 27.5144 30.8445 23.5 30.8447C19.4856 30.8445 16.2199 27.5784 16.2197 23.5635C16.2197 19.5489 19.4855 16.2824 23.5 16.2822ZM23.5 19.3594C21.1826 19.3596 19.2959 21.2451 19.2959 23.5625C19.2959 25.881 21.1826 27.7674 23.5 27.7676C25.8185 27.7674 27.7041 25.881 27.7041 23.5625C27.7041 21.2456 25.8179 19.3596 23.5 19.3594ZM31.0156 14.3418C31.9652 14.342 32.7391 15.1149 32.7393 16.0645C32.7393 17.0142 31.9653 17.7869 31.0156 17.7871C30.0654 17.7869 29.293 17.0142 29.293 16.0645C29.2931 15.1149 30.0655 14.342 31.0156 14.3418Z" fill="#FEFEFE"/>
</svg>
