<svg width="30" height="30" viewBox="0 0 30 30" fill="none" xmlns="http://www.w3.org/2000/svg">
<path opacity="0.4" d="M25.7749 10.5625C24.4624 4.7875 19.4249 2.1875 14.9999 2.1875C14.9999 2.1875 14.9999 2.1875 14.9874 2.1875C10.5749 2.1875 5.52488 4.775 4.21238 10.55C2.74988 17 6.69988 22.4625 10.2749 25.9C11.5999 27.175 13.2999 27.8125 14.9999 27.8125C16.6999 27.8125 18.3999 27.175 19.7124 25.9C23.2874 22.4625 27.2374 17.0125 25.7749 10.5625Z" fill="#292D32"/>
<path d="M15 16.825C17.1746 16.825 18.9375 15.0621 18.9375 12.8875C18.9375 10.7128 17.1746 8.94995 15 8.94995C12.8254 8.94995 11.0625 10.7128 11.0625 12.8875C11.0625 15.0621 12.8254 16.825 15 16.825Z" fill="#292D32"/>
</svg>
