<svg width="47" height="47" viewBox="0 0 47 47" fill="none" xmlns="http://www.w3.org/2000/svg">
<path d="M23.5 0C36.4787 0 47 10.5213 47 23.5C47 36.4787 36.4787 47 23.5 47C10.5213 47 0 36.4787 0 23.5C5.88153e-07 10.5213 10.5213 5.88115e-07 23.5 0ZM34.7197 18.418C33.9255 12.6513 28.1708 9.71324 22.04 10.3994C17.1926 10.9425 12.3597 14.866 12.1582 20.4688C12.0334 23.8916 13.0046 26.4587 16.2598 27.1797C17.6716 24.6875 15.8058 24.1392 15.5146 22.333C14.3195 14.9443 24.0386 9.90014 29.125 15.0615C32.6452 18.6366 30.3278 29.6271 24.6514 28.4863C19.2139 27.3934 27.3128 18.6425 22.9717 16.9258C19.4449 15.5303 17.5721 21.1958 19.2441 24.0107C18.2631 28.8521 16.1502 33.4138 17.0068 39.4863C19.7788 37.4743 20.7147 33.6223 21.4805 29.6045C22.8737 30.4502 23.6201 31.3313 25.3965 31.4688C31.9515 31.9748 35.6132 24.9265 34.7197 18.418Z" fill="#FEFEFE"/>
</svg>
