<svg width="47" height="47" viewBox="0 0 47 47" fill="none" xmlns="http://www.w3.org/2000/svg">
<path d="M23.5 0C36.4787 0 47 10.5213 47 23.5C47 36.4787 36.4787 47 23.5 47C10.5213 47 0 36.4787 0 23.5C5.88153e-07 10.5213 10.5213 5.88115e-07 23.5 0ZM30.7891 14.2012C27.6876 14.2012 25.1721 16.716 25.1719 19.8174C25.1719 20.2576 25.2221 20.6864 25.3184 21.0977C20.6502 20.8635 16.5109 18.6278 13.7402 15.2285C13.2568 16.058 12.9795 17.0235 12.9795 18.0527C12.9796 20.0008 13.9714 21.7205 15.4775 22.7275C14.5573 22.6986 13.6905 22.4462 12.9336 22.0244C12.9332 22.0482 12.9336 22.0723 12.9336 22.0957C12.9336 24.8173 14.8703 27.0878 17.4395 27.6035C16.9687 27.7325 16.4714 27.8008 15.96 27.8008C15.5973 27.8008 15.2459 27.7655 14.9033 27.7002C15.618 29.9313 17.6918 31.5559 20.1504 31.6016C18.2277 33.1083 15.8061 34.0058 13.1738 34.0059C12.7214 34.0059 12.2726 33.9791 11.834 33.9268C14.3185 35.5211 17.2724 36.4512 20.4443 36.4512C30.776 36.451 36.4266 27.8921 36.4268 20.4688C36.4268 20.2254 36.421 19.9826 36.4102 19.7422C37.5084 18.9505 38.4602 17.9613 39.2129 16.835C38.2061 17.2814 37.1231 17.5839 35.9873 17.7188C37.1472 17.0238 38.0369 15.9237 38.457 14.6113C37.3718 15.2551 36.1693 15.7219 34.8906 15.9736C33.866 14.8824 32.4056 14.2012 30.7891 14.2012Z" fill="#FEFEFE"/>
</svg>
