<svg width="47" height="47" viewBox="0 0 47 47" fill="none" xmlns="http://www.w3.org/2000/svg">
<path d="M23.5 0C36.4787 0 47 10.5213 47 23.5C47 36.4787 36.4787 47 23.5 47C10.5213 47 0 36.4787 0 23.5C5.88153e-07 10.5213 10.5213 5.88115e-07 23.5 0ZM23.0664 16.9229C21.7516 16.9092 20.639 16.9276 20.0088 17.2363C19.5895 17.4416 19.2659 17.8985 19.4629 17.9248C19.7065 17.9574 20.2584 18.0735 20.5508 18.4717C20.9266 18.9829 20.9152 20.1284 20.915 20.1396C20.915 20.1396 21.1318 23.3187 20.4082 23.7139C19.9114 23.9847 19.2297 23.4315 17.7666 20.9033C17.017 19.6083 16.4512 18.1768 16.4512 18.1768C16.4495 18.1727 16.3404 17.9086 16.1475 17.7666C15.9148 17.5959 15.5908 17.5397 15.5811 17.5381L12.0791 17.5605C12.0791 17.5605 11.5535 17.5754 11.3604 17.8037C11.1887 18.007 11.3467 18.4277 11.3467 18.4277C11.3575 18.4529 14.094 24.8489 17.1924 28.0752C20.0203 31.0195 23.2294 30.8461 23.2715 30.8438H24.7373C24.7512 30.8422 25.183 30.7914 25.4053 30.5518C25.6132 30.3282 25.6064 29.9082 25.6064 29.9082C25.6061 29.885 25.5837 27.9415 26.4902 27.6533C27.3896 27.3682 28.5454 29.5534 29.7695 30.3936C30.695 31.0291 31.3984 30.8896 31.3984 30.8896L34.6709 30.8438C34.6709 30.8438 36.3836 30.7385 35.5723 29.3926C35.5057 29.2824 35.0986 28.3963 33.1377 26.5762C31.0857 24.6715 31.3609 24.9795 33.833 21.6846C35.3385 19.6781 35.9407 18.4526 35.7529 17.9277C35.5747 17.431 34.4791 17.558 34.4658 17.5596L30.7803 17.583C30.7803 17.583 30.5073 17.5459 30.3047 17.667C30.1089 17.7844 29.9823 18.0564 29.9795 18.0625C29.9795 18.0625 29.396 19.615 28.6182 20.9355C26.9772 23.722 26.321 23.8692 26.0527 23.6963C25.4288 23.293 25.584 22.0764 25.584 21.2119C25.584 18.5115 25.9933 17.3852 24.7861 17.0938C24.3858 16.997 24.0905 16.9332 23.0664 16.9229Z" fill="#FEFEFE"/>
</svg>
